<svg xmlns="http://www.w3.org/2000/svg" viewBox="0 0 200 300">
  <defs>
    <linearGradient id="g" x1="0" y1="0" x2="0" y2="1">
      <stop offset="0%" stop-color="#060818"/>
      <stop offset="45%" stop-color="#1a1230"/>
      <stop offset="100%" stop-color="#3d2a0a"/>
    </linearGradient>
  </defs>
  <rect width="200" height="300" fill="url(#g)"/>
  <rect x="8" y="8" width="184" height="284" fill="none" stroke="rgba(180,140,60,0.3)" stroke-width="1"/>
  <!-- Stars -->
  <circle cx="35" cy="30" r="1.2" fill="white" opacity="0.8"/>
  <circle cx="70" cy="20" r="0.8" fill="white" opacity="0.6"/>
  <circle cx="120" cy="25" r="1.5" fill="white" opacity="0.9"/>
  <circle cx="155" cy="35" r="1" fill="white" opacity="0.7"/>
  <circle cx="170" cy="18" r="0.8" fill="white" opacity="0.5"/>
  <circle cx="45" cy="55" r="0.8" fill="white" opacity="0.4"/>
  <circle cx="175" cy="55" r="1.2" fill="white" opacity="0.6"/>
  <circle cx="30" cy="75" r="0.8" fill="white" opacity="0.5"/>
  <!-- Twin moons -->
  <circle cx="75" cy="55" r="18" fill="rgba(200,180,100,0.15)" stroke="rgba(200,180,100,0.4)" stroke-width="1"/>
  <circle cx="130" cy="48" r="12" fill="rgba(180,160,80,0.1)" stroke="rgba(180,160,80,0.3)" stroke-width="0.75"/>
  <!-- Sandworm silhouette (arcs) -->
  <path d="M20 145 Q60 120 100 140 Q140 160 180 135" fill="none" stroke="rgba(180,140,60,0.5)" stroke-width="3" stroke-linecap="round"/>
  <path d="M30 160 Q70 140 110 155 Q150 170 180 152" fill="none" stroke="rgba(150,110,40,0.4)" stroke-width="2" stroke-linecap="round"/>
  <!-- Desert dunes -->
  <path d="M0 175 Q30 158 70 168 Q100 178 130 165 Q160 152 200 162 L200 300 L0 300Z" fill="rgba(100,70,15,0.7)"/>
  <path d="M0 190 Q50 175 100 185 Q150 195 200 178 L200 300 L0 300Z" fill="rgba(80,55,10,0.6)"/>
  <path d="M0 210 Q40 200 80 205 Q140 215 200 200 L200 300 L0 300Z" fill="rgba(60,40,5,0.5)"/>
  <!-- Spice dust glow -->
  <ellipse cx="100" cy="170" rx="60" ry="10" fill="rgba(255,150,0,0.06)"/>
  <!-- Title area -->
  <rect x="0" y="195" width="200" height="105" fill="rgba(0,0,0,0.6)"/>
  <line x1="20" y1="203" x2="180" y2="203" stroke="rgba(180,140,60,0.5)" stroke-width="0.75"/>
  <text x="100" y="245" text-anchor="middle" fill="rgba(200,165,70,1)" font-family="Georgia, serif" font-size="42" font-weight="bold" letter-spacing="4">DUNE</text>
  <line x1="20" y1="256" x2="180" y2="256" stroke="rgba(180,140,60,0.5)" stroke-width="0.75"/>
  <text x="100" y="272" text-anchor="middle" fill="rgba(200,180,130,0.65)" font-family="Georgia, serif" font-size="10" letter-spacing="2">FRANK HERBERT</text>
  <text x="100" y="288" text-anchor="middle" fill="rgba(180,140,60,0.4)" font-family="Georgia, serif" font-size="8" letter-spacing="1.5">HUGO AWARD WINNER</text>
</svg>
