<svg xmlns="http://www.w3.org/2000/svg" viewBox="0 0 200 300">
  <defs>
    <linearGradient id="g" x1="0" y1="0" x2="0" y2="1">
      <stop offset="0%" stop-color="#1a4a6b"/>
      <stop offset="100%" stop-color="#0d2d45"/>
    </linearGradient>
  </defs>
  <rect width="200" height="300" fill="url(#g)"/>
  <rect x="8" y="8" width="184" height="284" fill="none" stroke="rgba(255,255,255,0.2)" stroke-width="1"/>
  <!-- Tree trunk -->
  <rect x="97" y="160" width="6" height="35" fill="rgba(255,255,255,0.3)"/>
  <!-- Tree branches -->
  <line x1="100" y1="175" x2="70" y2="145" stroke="rgba(255,255,255,0.3)" stroke-width="2"/>
  <line x1="100" y1="168" x2="130" y2="142" stroke="rgba(255,255,255,0.3)" stroke-width="2"/>
  <line x1="100" y1="180" x2="62" y2="165" stroke="rgba(255,255,255,0.3)" stroke-width="1.5"/>
  <line x1="100" y1="178" x2="138" y2="163" stroke="rgba(255,255,255,0.3)" stroke-width="1.5"/>
  <!-- Moon -->
  <circle cx="100" cy="85" r="32" fill="rgba(255,255,180,0.12)"/>
  <circle cx="100" cy="85" r="26" fill="rgba(255,255,180,0.1)"/>
  <!-- Bird silhouette -->
  <path d="M88 78 Q100 65 112 78 Q104 80 100 82 Q96 80 88 78Z" fill="rgba(255,255,255,0.6)"/>
  <path d="M100 82 L96 90 L100 88 L104 90 Z" fill="rgba(255,255,255,0.6)"/>
  <!-- Stars -->
  <circle cx="45" cy="45" r="1.5" fill="white" opacity="0.7"/>
  <circle cx="155" cy="38" r="1" fill="white" opacity="0.5"/>
  <circle cx="168" cy="65" r="1.5" fill="white" opacity="0.6"/>
  <circle cx="32" cy="70" r="1" fill="white" opacity="0.5"/>
  <circle cx="140" cy="110" r="1" fill="white" opacity="0.4"/>
  <!-- Title area -->
  <rect x="0" y="195" width="200" height="105" fill="rgba(0,0,0,0.45)"/>
  <text x="100" y="217" text-anchor="middle" fill="white" font-family="Georgia, serif" font-size="13" font-weight="bold">To Kill a</text>
  <text x="100" y="236" text-anchor="middle" fill="white" font-family="Georgia, serif" font-size="13" font-weight="bold">Mockingbird</text>
  <line x1="50" y1="247" x2="150" y2="247" stroke="rgba(255,255,255,0.3)" stroke-width="0.75"/>
  <text x="100" y="262" text-anchor="middle" fill="rgba(255,255,255,0.6)" font-family="Georgia, serif" font-size="10">Harper Lee</text>
  <text x="100" y="282" text-anchor="middle" fill="rgba(255,255,255,0.3)" font-family="Georgia, serif" font-size="8" letter-spacing="2">PULITZER PRIZE</text>
</svg>
