<svg xmlns="http://www.w3.org/2000/svg" viewBox="0 0 200 300">
  <defs>
    <linearGradient id="g" x1="0" y1="0" x2="1" y2="1">
      <stop offset="0%" stop-color="#7b3f6e"/>
      <stop offset="100%" stop-color="#c47ab5"/>
    </linearGradient>
  </defs>
  <rect width="200" height="300" fill="url(#g)"/>
  <rect x="8" y="8" width="184" height="284" fill="none" stroke="rgba(255,220,230,0.4)" stroke-width="1.5"/>
  <!-- Floral decorations -->
  <!-- Large center flower -->
  <circle cx="100" cy="95" r="5" fill="rgba(255,200,220,0.8)"/>
  <ellipse cx="100" cy="78" rx="6" ry="12" fill="rgba(255,180,210,0.6)" transform="rotate(0 100 95)"/>
  <ellipse cx="100" cy="78" rx="6" ry="12" fill="rgba(255,180,210,0.6)" transform="rotate(45 100 95)"/>
  <ellipse cx="100" cy="78" rx="6" ry="12" fill="rgba(255,180,210,0.6)" transform="rotate(90 100 95)"/>
  <ellipse cx="100" cy="78" rx="6" ry="12" fill="rgba(255,180,210,0.6)" transform="rotate(135 100 95)"/>
  <ellipse cx="100" cy="78" rx="6" ry="12" fill="rgba(255,180,210,0.6)" transform="rotate(180 100 95)"/>
  <ellipse cx="100" cy="78" rx="6" ry="12" fill="rgba(255,180,210,0.6)" transform="rotate(225 100 95)"/>
  <ellipse cx="100" cy="78" rx="6" ry="12" fill="rgba(255,180,210,0.6)" transform="rotate(270 100 95)"/>
  <ellipse cx="100" cy="78" rx="6" ry="12" fill="rgba(255,180,210,0.6)" transform="rotate(315 100 95)"/>
  <!-- Small flowers -->
  <circle cx="50" cy="55" r="3" fill="rgba(255,220,230,0.7)"/>
  <circle cx="50" cy="43" r="4" fill="rgba(255,200,215,0.5)"/>
  <circle cx="42" cy="50" r="4" fill="rgba(255,200,215,0.5)"/>
  <circle cx="58" cy="50" r="4" fill="rgba(255,200,215,0.5)"/>
  <circle cx="42" cy="62" r="4" fill="rgba(255,200,215,0.5)"/>
  <circle cx="58" cy="62" r="4" fill="rgba(255,200,215,0.5)"/>
  <circle cx="150" cy="55" r="3" fill="rgba(255,220,230,0.7)"/>
  <circle cx="150" cy="43" r="4" fill="rgba(255,200,215,0.5)"/>
  <circle cx="142" cy="50" r="4" fill="rgba(255,200,215,0.5)"/>
  <circle cx="158" cy="50" r="4" fill="rgba(255,200,215,0.5)"/>
  <circle cx="142" cy="62" r="4" fill="rgba(255,200,215,0.5)"/>
  <circle cx="158" cy="62" r="4" fill="rgba(255,200,215,0.5)"/>
  <!-- Vine lines -->
  <path d="M30 140 Q60 110 100 130 Q140 150 170 120" fill="none" stroke="rgba(255,220,230,0.35)" stroke-width="1.5"/>
  <path d="M30 155 Q70 135 100 145 Q130 155 170 135" fill="none" stroke="rgba(255,220,230,0.25)" stroke-width="1"/>
  <!-- Title area -->
  <rect x="0" y="180" width="200" height="120" fill="rgba(60,0,50,0.55)"/>
  <line x1="25" y1="188" x2="175" y2="188" stroke="rgba(255,200,220,0.5)" stroke-width="0.75"/>
  <text x="100" y="210" text-anchor="middle" fill="white" font-family="Georgia, serif" font-size="14" font-weight="bold" font-style="italic">Pride and</text>
  <text x="100" y="230" text-anchor="middle" fill="white" font-family="Georgia, serif" font-size="14" font-weight="bold" font-style="italic">Prejudice</text>
  <line x1="50" y1="242" x2="150" y2="242" stroke="rgba(255,200,220,0.4)" stroke-width="0.75"/>
  <text x="100" y="258" text-anchor="middle" fill="rgba(255,220,230,0.7)" font-family="Georgia, serif" font-size="10">Jane Austen</text>
  <text x="100" y="278" text-anchor="middle" fill="rgba(255,200,220,0.4)" font-family="Georgia, serif" font-size="8" letter-spacing="1.5">A NOVEL</text>
</svg>
